<?xml version="1.0" standalone="no"?>
<!DOCTYPE svg PUBLIC "-//W3C//DTD SVG 20010904//EN"
 "http://www.w3.org/TR/2001/REC-SVG-20010904/DTD/svg10.dtd">
<svg version="1.0" xmlns="http://www.w3.org/2000/svg"
 width="740.000000pt" height="763.000000pt" viewBox="0 0 740.000000 763.000000"
 preserveAspectRatio="xMidYMid meet">
<g transform="translate(0.000000,763.000000) scale(0.100000,-0.100000)"
fill="#000000" stroke="none">
<path d="M3960 7214 c-624 -56 -1123 -220 -1585 -521 -520 -339 -816 -723
-891 -1153 -20 -119 -15 -462 9 -550 45 -163 111 -274 235 -392 222 -212 493
-314 883 -334 87 -4 142 -11 156 -20 30 -19 55 -70 59 -116 l3 -38 -75 0
c-552 0 -1309 -339 -1763 -790 -250 -248 -450 -559 -545 -848 -99 -302 -133
-509 -123 -756 16 -384 134 -672 376 -917 258 -260 577 -409 1017 -476 185
-28 677 -25 869 5 349 54 729 183 1072 362 665 349 1067 744 1343 1322 106
223 169 393 325 883 150 470 273 772 400 985 31 52 77 136 102 185 56 111 56
111 173 198 109 80 310 279 455 451 245 289 300 391 246 457 -19 23 -19 25 -1
60 46 88 22 127 -54 88 -132 -65 -422 -401 -696 -803 -205 -301 -693 -811
-1053 -1098 -259 -208 -515 -359 -704 -418 -36 -11 -68 -20 -73 -20 -4 0 -10
60 -13 133 -12 281 -101 491 -278 663 -123 118 -261 194 -469 257 -131 40
-127 33 -80 135 37 80 114 156 208 205 39 21 155 65 257 98 760 246 1495 649
2110 1157 86 71 91 74 130 67 22 -3 56 -14 75 -23 34 -17 35 -19 38 -81 9
-201 -89 -544 -224 -782 -48 -86 -55 -119 -24 -119 11 0 31 18 51 46 37 54
137 262 169 352 13 34 25 61 27 59 2 -2 -1 -17 -7 -32 -6 -15 -9 -30 -6 -32 4
-4 46 120 67 197 13 51 16 85 24 330 6 164 8 180 37 255 47 122 70 163 142
252 88 109 154 213 179 281 28 79 35 280 12 358 -35 121 -133 183 -305 191
-118 6 -236 -17 -450 -86 l-150 -49 -52 40 c-233 175 -564 304 -923 360 -100
15 -192 20 -395 23 -146 1 -285 1 -310 -1z m457 -74 c362 -20 612 -77 862
-196 113 -54 281 -158 281 -173 0 -16 -40 -19 -77 -5 -21 7 -46 13 -56 14 -15
0 -16 -3 -6 -22 7 -13 16 -26 21 -29 5 -3 -67 -41 -159 -84 -789 -370 -1305
-711 -1715 -1133 -277 -285 -493 -618 -609 -937 -18 -49 -37 -96 -42 -102 -20
-27 -363 -9 -554 28 -434 84 -711 302 -793 625 -42 165 -14 338 90 544 287
569 1157 1123 2019 1284 492 93 1074 64 1506 -75 49 -15 91 -27 92 -25 6 6
-62 43 -139 77 -149 65 -319 114 -513 146 -158 26 -728 26 -925 0 -163 -21
-312 -50 -400 -77 -75 -23 -103 -25 -45 -4 188 69 579 136 860 147 39 2 84 4
100 5 17 1 107 -3 202 -8z m1940 -295 c40 -16 103 -74 103 -95 0 -5 -21 1 -47
13 -70 32 -236 30 -448 -5 -184 -31 -245 -39 -245 -33 0 8 93 52 170 80 178
65 368 81 467 40z m-74 -106 c48 -13 110 -68 154 -137 32 -49 33 -54 22 -94
-27 -101 -120 -244 -244 -377 l-78 -82 -37 103 c-46 132 -115 262 -197 373
l-65 88 19 26 c61 82 295 137 426 100z m-388 -309 c71 -108 162 -313 152 -343
-1 -5 -9 9 -16 33 -7 23 -14 40 -17 38 -2 -3 0 -18 6 -34 5 -16 14 -57 18 -92
l9 -63 -106 -90 c-514 -440 -1268 -888 -1936 -1152 -139 -54 -390 -139 -453
-152 l-32 -7 31 54 c140 237 446 605 765 920 328 323 604 549 944 770 307 200
334 210 463 179 l79 -19 8 22 c4 11 3 30 -2 41 -15 33 40 -34 87 -105z m513
-182 c-23 -35 -41 -65 -39 -67 9 -9 -84 -121 -112 -135 -17 -8 -33 -13 -36
-11 -2 2 25 35 59 72 34 37 85 98 112 136 28 37 53 67 55 67 2 0 -15 -28 -39
-62z m-433 -445 c-13 -21 -31 -48 -40 -60 -20 -30 -336 -265 -520 -389 -488
-327 -1059 -628 -1520 -801 -276 -104 -311 -112 -351 -81 l-26 21 219 72 c582
192 1160 482 1703 853 134 91 397 288 495 371 33 28 61 51 62 51 1 0 -9 -17
-22 -37z m-4111 -1188 c219 -139 477 -209 829 -223 l172 -7 -49 -24 c-48 -24
-50 -24 -185 -12 -246 21 -456 73 -619 153 -99 48 -169 100 -272 198 l-75 71
74 -61 c41 -34 97 -77 125 -95z m3976 -405 c-6 -11 -13 -20 -16 -20 -2 0 0 9
6 20 6 11 13 20 16 20 2 0 0 -9 -6 -20z m-3103 -216 c-3 -3 -12 -4 -19 -1 -8
3 -5 6 6 6 11 1 17 -2 13 -5z m-49 -11 c-10 -2 -26 -2 -35 0 -10 3 -2 5 17 5
19 0 27 -2 18 -5z m664 -39 c138 -43 330 -150 379 -210 7 -10 -4 -4 -26 13
-49 39 -176 94 -282 123 -112 30 -131 39 -154 71 -25 35 -21 36 83 3z m2146
-86 c-51 -57 -112 -125 -134 -153 -110 -135 -184 -229 -184 -235 0 -4 11 -12
25 -18 14 -6 25 -19 25 -27 0 -9 5 -13 10 -10 32 20 -370 -628 -608 -980 -652
-965 -1171 -1485 -1731 -1735 -634 -284 -1396 -260 -1851 57 -235 164 -408
411 -428 612 -12 120 -6 400 12 506 62 370 220 716 467 1022 92 114 289 312
406 410 306 253 676 430 1062 509 l133 28 36 -20 c47 -25 68 -71 82 -174 51
-393 236 -684 527 -830 121 -60 308 -100 469 -100 55 0 66 -4 109 -36 54 -42
55 -52 8 -158 -83 -187 -189 -334 -377 -522 -210 -209 -387 -318 -586 -360
-231 -49 -438 31 -519 199 -30 62 -53 147 -32 117 9 -13 11 -12 11 4 0 11 7
28 17 38 28 32 60 22 122 -37 67 -64 112 -85 181 -85 157 0 301 141 303 297 0
32 -5 74 -11 93 -6 19 -16 61 -22 92 -14 72 -44 116 -100 148 -40 22 -57 25
-145 25 -94 0 -104 -2 -161 -33 -115 -62 -223 -198 -264 -331 -30 -94 -30
-333 -2 -414 41 -115 145 -219 270 -269 51 -20 73 -22 222 -22 151 0 172 2
255 28 226 69 464 247 637 477 64 85 134 207 124 216 -4 4 -46 -36 -93 -88
-380 -413 -631 -584 -885 -602 -144 -10 -242 29 -356 140 -64 63 -69 69 -27
38 226 -170 583 -134 897 92 99 71 255 218 333 313 31 38 62 67 68 63 5 -3 7
-1 3 5 -3 6 19 47 49 92 57 84 138 237 170 324 11 27 21 44 23 38 2 -7 23 12
47 42 57 69 168 169 214 193 64 32 143 84 138 90 -3 3 -37 -7 -76 -21 -83 -32
-98 -34 -140 -17 l-32 14 73 32 c361 158 687 397 1113 817 115 114 212 207
213 208 2 0 -38 -46 -90 -102z m-2110 -57 c197 -82 381 -232 499 -409 61 -91
120 -216 129 -275 5 -27 9 -35 16 -25 5 8 7 -21 6 -72 l-3 -85 -40 -7 c-80
-14 -258 -8 -353 11 -143 30 -246 85 -348 185 -111 109 -149 187 -159 319 -9
128 7 257 40 313 47 80 101 91 213 45z m172 -918 c75 -20 129 -26 255 -31 88
-3 153 -7 145 -10 -8 -3 -26 -13 -39 -23 -55 -44 -261 -14 -406 57 -49 25 -81
42 -70 38 11 -3 63 -17 115 -31z m-2200 -2363 c224 -73 486 -106 785 -97 105
3 186 4 180 2 -5 -2 -91 -11 -190 -21 -368 -34 -644 12 -915 152 -152 79 -180
102 -50 40 53 -25 138 -59 190 -76z"/>
</g>
</svg>
